<svg xmlns="http://www.w3.org/2000/svg" xmlns:xlink="http://www.w3.org/1999/xlink" viewBox="0 0 900 392" width="900" height="392" role="img" aria-labelledby="ttl dsc">
<title id="ttl">The forge: a neural network of nine layers</title>
<desc id="dsc">Animated neural network. Signals flow from cold blue input nodes to hot red output nodes through nine layers named after the nine realms, while a loss curve falls toward zero.</desc>
<defs>
<path id="r_fehu" d="M3 17V1 M3 6.5L10 1.5 M3 12L10 7"/><path id="r_uruz" d="M3 17V1L10 7.5V17"/><path id="r_thurs" d="M3 1V17 M3 5L10 9L3 13"/><path id="r_ansuz" d="M3 1V17 M3 4L10 8 M3 9L10 13"/><path id="r_raido" d="M3 1V17 M3 2L10 6L3 10L10 17"/><path id="r_kenaz" d="M10 3L3 9L10 15"/><path id="r_gebo" d="M2 2L10 16 M10 2L2 16"/><path id="r_wunjo" d="M3 1V17 M3 2L10 6L3 10"/><path id="r_hagal" d="M3 1V17 M10 1V17 M3 6L10 12"/>
<clipPath id="panel"><rect width="900" height="392" rx="12"/></clipPath>
<radialGradient id="bg" cx="35%" cy="48%" r="70%"><stop offset="0" stop-color="#1a0709"/><stop offset="1" stop-color="#070405"/></radialGradient>
<style>.serif{font-family:'Palatino Linotype','Book Antiqua',Palatino,Georgia,'Times New Roman',serif}.mono{font-family:'Cascadia Code','Fira Code','JetBrains Mono',Consolas,'SF Mono',Menlo,'DejaVu Sans Mono','Courier New',monospace}@keyframes blink{0%,49%{opacity:1}50%,100%{opacity:0}}@media (prefers-reduced-motion:reduce){*{animation:none!important}}@keyframes tw{0%,100%{opacity:.35}50%{opacity:1}}.tw{animation:tw 3.2s ease-in-out infinite}@keyframes ell{0%,100%{opacity:1}50%{opacity:.2}}.ell{animation:ell 1.2s ease-in-out infinite}</style>
</defs>
<g clip-path="url(#panel)">
<rect width="900" height="392" fill="url(#bg)"/>
<path d="M58 159.0L126 159.0M58 159.0L126 188.0M58 159.0L126 217.0M58 188.0L126 188.0M58 188.0L126 217.0M58 188.0L126 246.0M58 217.0L126 130.0M58 217.0L126 159.0M58 217.0L126 188.0M58 217.0L126 217.0" stroke="#9ae3fa" stroke-opacity=".2" stroke-width=".8" fill="none"/><path d="M126 130.0L194 115.5M126 130.0L194 144.5M126 130.0L194 173.5M126 130.0L194 231.5M126 159.0L194 144.5M126 159.0L194 173.5M126 159.0L194 231.5M126 159.0L194 260.5M126 188.0L194 115.5M126 188.0L194 260.5M126 217.0L194 144.5M126 217.0L194 173.5M126 246.0L194 115.5M126 246.0L194 173.5M126 246.0L194 202.5M126 246.0L194 231.5M126 246.0L194 260.5" stroke="#b1e3f1" stroke-opacity=".2" stroke-width=".8" fill="none"/><path d="M194 115.5L262 101.0M194 115.5L262 130.0M194 115.5L262 159.0M194 115.5L262 217.0M194 115.5L262 246.0M194 115.5L262 275.0M194 144.5L262 101.0M194 144.5L262 217.0M194 144.5L262 275.0M194 173.5L262 101.0M194 173.5L262 188.0M194 202.5L262 101.0M194 202.5L262 130.0M194 202.5L262 159.0M194 202.5L262 188.0M194 202.5L262 217.0M194 231.5L262 101.0M194 231.5L262 159.0M194 231.5L262 217.0M194 231.5L262 246.0M194 231.5L262 275.0M194 260.5L262 101.0M194 260.5L262 130.0M194 260.5L262 159.0M194 260.5L262 217.0M194 260.5L262 246.0" stroke="#c7e4e8" stroke-opacity=".2" stroke-width=".8" fill="none"/><path d="M262 101.0L330 86.5M262 101.0L330 115.5M262 101.0L330 144.5M262 101.0L330 173.5M262 101.0L330 260.5M262 101.0L330 289.5M262 130.0L330 86.5M262 130.0L330 144.5M262 130.0L330 231.5M262 159.0L330 86.5M262 159.0L330 115.5M262 159.0L330 173.5M262 159.0L330 202.5M262 159.0L330 231.5M262 188.0L330 86.5M262 188.0L330 115.5M262 188.0L330 144.5M262 188.0L330 231.5M262 217.0L330 86.5M262 217.0L330 144.5M262 217.0L330 202.5M262 217.0L330 231.5M262 217.0L330 260.5M262 217.0L330 289.5M262 246.0L330 173.5M262 246.0L330 202.5M262 246.0L330 289.5M262 275.0L330 86.5M262 275.0L330 115.5M262 275.0L330 202.5M262 275.0L330 231.5M262 275.0L330 260.5M262 275.0L330 289.5" stroke="#dee4df" stroke-opacity=".2" stroke-width=".8" fill="none"/><path d="M330 86.5L398 130.0M330 86.5L398 159.0M330 86.5L398 188.0M330 86.5L398 246.0M330 86.5L398 275.0M330 115.5L398 159.0M330 115.5L398 188.0M330 115.5L398 217.0M330 115.5L398 246.0M330 115.5L398 275.0M330 144.5L398 101.0M330 144.5L398 130.0M330 144.5L398 159.0M330 144.5L398 188.0M330 144.5L398 246.0M330 173.5L398 130.0M330 173.5L398 159.0M330 173.5L398 217.0M330 173.5L398 246.0M330 202.5L398 101.0M330 202.5L398 130.0M330 202.5L398 217.0M330 202.5L398 246.0M330 202.5L398 275.0M330 231.5L398 101.0M330 231.5L398 130.0M330 231.5L398 246.0M330 231.5L398 275.0M330 260.5L398 101.0M330 260.5L398 159.0M330 260.5L398 188.0M330 260.5L398 217.0M330 260.5L398 246.0M330 260.5L398 275.0M330 289.5L398 101.0M330 289.5L398 159.0M330 289.5L398 217.0M330 289.5L398 246.0" stroke="#eccdc6" stroke-opacity=".2" stroke-width=".8" fill="none"/><path d="M398 101.0L466 231.5M398 101.0L466 260.5M398 130.0L466 115.5M398 130.0L466 144.5M398 130.0L466 173.5M398 130.0L466 202.5M398 130.0L466 260.5M398 159.0L466 144.5M398 159.0L466 173.5M398 159.0L466 260.5M398 188.0L466 144.5M398 188.0L466 173.5M398 188.0L466 231.5M398 188.0L466 260.5M398 217.0L466 144.5M398 217.0L466 173.5M398 217.0L466 202.5M398 217.0L466 260.5M398 246.0L466 144.5M398 246.0L466 173.5M398 246.0L466 202.5M398 246.0L466 260.5M398 275.0L466 115.5M398 275.0L466 173.5M398 275.0L466 202.5M398 275.0L466 260.5" stroke="#f19f9f" stroke-opacity=".2" stroke-width=".8" fill="none"/><path d="M466 115.5L534 144.5M466 115.5L534 173.5M466 115.5L534 231.5M466 144.5L534 173.5M466 144.5L534 202.5M466 173.5L534 144.5M466 173.5L534 173.5M466 173.5L534 231.5M466 202.5L534 144.5M466 202.5L534 231.5M466 231.5L534 144.5M466 231.5L534 173.5M466 260.5L534 173.5M466 260.5L534 202.5" stroke="#f77278" stroke-opacity=".2" stroke-width=".8" fill="none"/><path d="M534 202.5L602 173.5M534 231.5L602 173.5" stroke="#fc4451" stroke-opacity=".2" stroke-width=".8" fill="none"/><circle cx="58" cy="159.0" r="5.4" fill="#090506" stroke="#8fe3ff" stroke-width="1.3"/><circle class="tw" style="animation-delay:-3.8s" cx="58" cy="159.0" r="2" fill="#8fe3ff"/><circle cx="58" cy="188.0" r="5.4" fill="#090506" stroke="#8fe3ff" stroke-width="1.3"/><circle class="tw" style="animation-delay:-0.5s" cx="58" cy="188.0" r="2" fill="#8fe3ff"/><circle cx="58" cy="217.0" r="5.4" fill="#090506" stroke="#8fe3ff" stroke-width="1.3"/><circle class="tw" style="animation-delay:-0.5s" cx="58" cy="217.0" r="2" fill="#8fe3ff"/><circle cx="126" cy="130.0" r="5.4" fill="#090506" stroke="#a6e3f6" stroke-width="1.3"/><circle class="tw" style="animation-delay:-0.4s" cx="126" cy="130.0" r="2" fill="#a6e3f6"/><circle cx="126" cy="159.0" r="5.4" fill="#090506" stroke="#a6e3f6" stroke-width="1.3"/><circle class="tw" style="animation-delay:-2.2s" cx="126" cy="159.0" r="2" fill="#a6e3f6"/><circle cx="126" cy="188.0" r="5.4" fill="#090506" stroke="#a6e3f6" stroke-width="1.3"/><circle class="tw" style="animation-delay:-1.1s" cx="126" cy="188.0" r="2" fill="#a6e3f6"/><circle cx="126" cy="217.0" r="5.4" fill="#090506" stroke="#a6e3f6" stroke-width="1.3"/><circle class="tw" style="animation-delay:-2.4s" cx="126" cy="217.0" r="2" fill="#a6e3f6"/><circle cx="126" cy="246.0" r="5.4" fill="#090506" stroke="#a6e3f6" stroke-width="1.3"/><circle class="tw" style="animation-delay:-2.9s" cx="126" cy="246.0" r="2" fill="#a6e3f6"/><circle cx="194" cy="115.5" r="5.4" fill="#090506" stroke="#bce4ec" stroke-width="1.3"/><circle class="tw" style="animation-delay:-0.8s" cx="194" cy="115.5" r="2" fill="#bce4ec"/><circle cx="194" cy="144.5" r="5.4" fill="#090506" stroke="#bce4ec" stroke-width="1.3"/><circle class="tw" style="animation-delay:-2.5s" cx="194" cy="144.5" r="2" fill="#bce4ec"/><circle cx="194" cy="173.5" r="5.4" fill="#090506" stroke="#bce4ec" stroke-width="1.3"/><circle class="tw" style="animation-delay:-1.1s" cx="194" cy="173.5" r="2" fill="#bce4ec"/><circle cx="194" cy="202.5" r="5.4" fill="#090506" stroke="#bce4ec" stroke-width="1.3"/><circle class="tw" style="animation-delay:-2.0s" cx="194" cy="202.5" r="2" fill="#bce4ec"/><circle cx="194" cy="231.5" r="5.4" fill="#090506" stroke="#bce4ec" stroke-width="1.3"/><circle class="tw" style="animation-delay:-3.6s" cx="194" cy="231.5" r="2" fill="#bce4ec"/><circle cx="194" cy="260.5" r="5.4" fill="#090506" stroke="#bce4ec" stroke-width="1.3"/><circle class="tw" style="animation-delay:-3.4s" cx="194" cy="260.5" r="2" fill="#bce4ec"/><circle cx="262" cy="101.0" r="5.4" fill="#090506" stroke="#d2e4e3" stroke-width="1.3"/><circle class="tw" style="animation-delay:-0.4s" cx="262" cy="101.0" r="2" fill="#d2e4e3"/><circle cx="262" cy="130.0" r="5.4" fill="#090506" stroke="#d2e4e3" stroke-width="1.3"/><circle class="tw" style="animation-delay:-1.7s" cx="262" cy="130.0" r="2" fill="#d2e4e3"/><circle cx="262" cy="159.0" r="5.4" fill="#090506" stroke="#d2e4e3" stroke-width="1.3"/><circle class="tw" style="animation-delay:-1.1s" cx="262" cy="159.0" r="2" fill="#d2e4e3"/><circle cx="262" cy="188.0" r="5.4" fill="#090506" stroke="#d2e4e3" stroke-width="1.3"/><circle class="tw" style="animation-delay:-0.0s" cx="262" cy="188.0" r="2" fill="#d2e4e3"/><circle cx="262" cy="217.0" r="5.4" fill="#090506" stroke="#d2e4e3" stroke-width="1.3"/><circle class="tw" style="animation-delay:-3.1s" cx="262" cy="217.0" r="2" fill="#d2e4e3"/><circle cx="262" cy="246.0" r="5.4" fill="#090506" stroke="#d2e4e3" stroke-width="1.3"/><circle class="tw" style="animation-delay:-2.5s" cx="262" cy="246.0" r="2" fill="#d2e4e3"/><circle cx="262" cy="275.0" r="5.4" fill="#090506" stroke="#d2e4e3" stroke-width="1.3"/><circle class="tw" style="animation-delay:-1.0s" cx="262" cy="275.0" r="2" fill="#d2e4e3"/><circle cx="330" cy="86.5" r="5.4" fill="#090506" stroke="#e9e4da" stroke-width="1.3"/><circle class="tw" style="animation-delay:-3.0s" cx="330" cy="86.5" r="2" fill="#e9e4da"/><circle cx="330" cy="115.5" r="5.4" fill="#090506" stroke="#e9e4da" stroke-width="1.3"/><circle class="tw" style="animation-delay:-2.2s" cx="330" cy="115.5" r="2" fill="#e9e4da"/><circle cx="330" cy="144.5" r="5.4" fill="#090506" stroke="#e9e4da" stroke-width="1.3"/><circle class="tw" style="animation-delay:-1.7s" cx="330" cy="144.5" r="2" fill="#e9e4da"/><circle cx="330" cy="173.5" r="5.4" fill="#090506" stroke="#e9e4da" stroke-width="1.3"/><circle class="tw" style="animation-delay:-0.0s" cx="330" cy="173.5" r="2" fill="#e9e4da"/><circle cx="330" cy="202.5" r="5.4" fill="#090506" stroke="#e9e4da" stroke-width="1.3"/><circle class="tw" style="animation-delay:-0.3s" cx="330" cy="202.5" r="2" fill="#e9e4da"/><circle cx="330" cy="231.5" r="5.4" fill="#090506" stroke="#e9e4da" stroke-width="1.3"/><circle class="tw" style="animation-delay:-3.5s" cx="330" cy="231.5" r="2" fill="#e9e4da"/><circle cx="330" cy="260.5" r="5.4" fill="#090506" stroke="#e9e4da" stroke-width="1.3"/><circle class="tw" style="animation-delay:-3.6s" cx="330" cy="260.5" r="2" fill="#e9e4da"/><circle cx="330" cy="289.5" r="5.4" fill="#090506" stroke="#e9e4da" stroke-width="1.3"/><circle class="tw" style="animation-delay:-2.2s" cx="330" cy="289.5" r="2" fill="#e9e4da"/><circle cx="398" cy="101.0" r="5.4" fill="#090506" stroke="#eeb6b3" stroke-width="1.3"/><circle class="tw" style="animation-delay:-3.3s" cx="398" cy="101.0" r="2" fill="#eeb6b3"/><circle cx="398" cy="130.0" r="5.4" fill="#090506" stroke="#eeb6b3" stroke-width="1.3"/><circle class="tw" style="animation-delay:-2.3s" cx="398" cy="130.0" r="2" fill="#eeb6b3"/><circle cx="398" cy="159.0" r="5.4" fill="#090506" stroke="#eeb6b3" stroke-width="1.3"/><circle class="tw" style="animation-delay:-0.6s" cx="398" cy="159.0" r="2" fill="#eeb6b3"/><circle cx="398" cy="188.0" r="5.4" fill="#090506" stroke="#eeb6b3" stroke-width="1.3"/><circle class="tw" style="animation-delay:-0.5s" cx="398" cy="188.0" r="2" fill="#eeb6b3"/><circle cx="398" cy="217.0" r="5.4" fill="#090506" stroke="#eeb6b3" stroke-width="1.3"/><circle class="tw" style="animation-delay:-1.2s" cx="398" cy="217.0" r="2" fill="#eeb6b3"/><circle cx="398" cy="246.0" r="5.4" fill="#090506" stroke="#eeb6b3" stroke-width="1.3"/><circle class="tw" style="animation-delay:-3.6s" cx="398" cy="246.0" r="2" fill="#eeb6b3"/><circle cx="398" cy="275.0" r="5.4" fill="#090506" stroke="#eeb6b3" stroke-width="1.3"/><circle class="tw" style="animation-delay:-3.2s" cx="398" cy="275.0" r="2" fill="#eeb6b3"/><circle cx="466" cy="115.5" r="5.4" fill="#090506" stroke="#f4888c" stroke-width="1.3"/><circle class="tw" style="animation-delay:-3.4s" cx="466" cy="115.5" r="2" fill="#f4888c"/><circle cx="466" cy="144.5" r="5.4" fill="#090506" stroke="#f4888c" stroke-width="1.3"/><circle class="tw" style="animation-delay:-3.6s" cx="466" cy="144.5" r="2" fill="#f4888c"/><circle cx="466" cy="173.5" r="5.4" fill="#090506" stroke="#f4888c" stroke-width="1.3"/><circle class="tw" style="animation-delay:-0.8s" cx="466" cy="173.5" r="2" fill="#f4888c"/><circle cx="466" cy="202.5" r="5.4" fill="#090506" stroke="#f4888c" stroke-width="1.3"/><circle class="tw" style="animation-delay:-1.0s" cx="466" cy="202.5" r="2" fill="#f4888c"/><circle cx="466" cy="231.5" r="5.4" fill="#090506" stroke="#f4888c" stroke-width="1.3"/><circle class="tw" style="animation-delay:-0.4s" cx="466" cy="231.5" r="2" fill="#f4888c"/><circle cx="466" cy="260.5" r="5.4" fill="#090506" stroke="#f4888c" stroke-width="1.3"/><circle class="tw" style="animation-delay:-3.1s" cx="466" cy="260.5" r="2" fill="#f4888c"/><circle cx="534" cy="144.5" r="5.4" fill="#090506" stroke="#fa5b64" stroke-width="1.3"/><circle class="tw" style="animation-delay:-3.5s" cx="534" cy="144.5" r="2" fill="#fa5b64"/><circle cx="534" cy="173.5" r="5.4" fill="#090506" stroke="#fa5b64" stroke-width="1.3"/><circle class="tw" style="animation-delay:-1.6s" cx="534" cy="173.5" r="2" fill="#fa5b64"/><circle cx="534" cy="202.5" r="5.4" fill="#090506" stroke="#fa5b64" stroke-width="1.3"/><circle class="tw" style="animation-delay:-2.5s" cx="534" cy="202.5" r="2" fill="#fa5b64"/><circle cx="534" cy="231.5" r="5.4" fill="#090506" stroke="#fa5b64" stroke-width="1.3"/><circle class="tw" style="animation-delay:-0.6s" cx="534" cy="231.5" r="2" fill="#fa5b64"/><circle cx="602" cy="173.5" r="5.4" fill="#090506" stroke="#ff2d3d" stroke-width="1.3"/><circle class="tw" style="animation-delay:-3.7s" cx="602" cy="173.5" r="2" fill="#ff2d3d"/><circle cx="602" cy="202.5" r="5.4" fill="#090506" stroke="#ff2d3d" stroke-width="1.3"/><circle class="tw" style="animation-delay:-3.5s" cx="602" cy="202.5" r="2" fill="#ff2d3d"/><g opacity="0"><animateMotion dur="3.62s" begin="3.86s" repeatCount="indefinite" path="M58 159.0 L126 217.0 L194 115.5 L262 130.0 L330 231.5 L398 275.0 L466 202.5 L534 173.5 L602 202.5"/><animate attributeName="opacity" dur="3.62s" begin="3.86s" repeatCount="indefinite" values="0;1;1;0" keyTimes="0;.06;.92;1"/><circle r="8" opacity=".2" fill="#e9e4da"><animate attributeName="fill" dur="3.62s" begin="3.86s" repeatCount="indefinite" values="#8fe3ff;#e9e4da;#ff2d3d" keyTimes="0;.5;1"/></circle><circle r="2.7" fill="#e9e4da"><animate attributeName="fill" dur="3.62s" begin="3.86s" repeatCount="indefinite" values="#8fe3ff;#e9e4da;#ff2d3d" keyTimes="0;.5;1"/></circle></g><g opacity="0"><animateMotion dur="4.55s" begin="4.79s" repeatCount="indefinite" path="M58 188.0 L126 130.0 L194 202.5 L262 130.0 L330 173.5 L398 275.0 L466 202.5 L534 202.5 L602 202.5"/><animate attributeName="opacity" dur="4.55s" begin="4.79s" repeatCount="indefinite" values="0;1;1;0" keyTimes="0;.06;.92;1"/><circle r="8" opacity=".2" fill="#e9e4da"><animate attributeName="fill" dur="4.55s" begin="4.79s" repeatCount="indefinite" values="#8fe3ff;#e9e4da;#ff2d3d" keyTimes="0;.5;1"/></circle><circle r="2.7" fill="#e9e4da"><animate attributeName="fill" dur="4.55s" begin="4.79s" repeatCount="indefinite" values="#8fe3ff;#e9e4da;#ff2d3d" keyTimes="0;.5;1"/></circle></g><g opacity="0"><animateMotion dur="3.89s" begin="2.80s" repeatCount="indefinite" path="M58 159.0 L126 130.0 L194 260.5 L262 130.0 L330 260.5 L398 159.0 L466 173.5 L534 144.5 L602 202.5"/><animate attributeName="opacity" dur="3.89s" begin="2.80s" repeatCount="indefinite" values="0;1;1;0" keyTimes="0;.06;.92;1"/><circle r="8" opacity=".2" fill="#e9e4da"><animate attributeName="fill" dur="3.89s" begin="2.80s" repeatCount="indefinite" values="#8fe3ff;#e9e4da;#ff2d3d" keyTimes="0;.5;1"/></circle><circle r="2.7" fill="#e9e4da"><animate attributeName="fill" dur="3.89s" begin="2.80s" repeatCount="indefinite" values="#8fe3ff;#e9e4da;#ff2d3d" keyTimes="0;.5;1"/></circle></g><g opacity="0"><animateMotion dur="3.55s" begin="2.39s" repeatCount="indefinite" path="M58 217.0 L126 246.0 L194 173.5 L262 101.0 L330 115.5 L398 159.0 L466 144.5 L534 202.5 L602 173.5"/><animate attributeName="opacity" dur="3.55s" begin="2.39s" repeatCount="indefinite" values="0;1;1;0" keyTimes="0;.06;.92;1"/><circle r="8" opacity=".2" fill="#e9e4da"><animate attributeName="fill" dur="3.55s" begin="2.39s" repeatCount="indefinite" values="#8fe3ff;#e9e4da;#ff2d3d" keyTimes="0;.5;1"/></circle><circle r="2.7" fill="#e9e4da"><animate attributeName="fill" dur="3.55s" begin="2.39s" repeatCount="indefinite" values="#8fe3ff;#e9e4da;#ff2d3d" keyTimes="0;.5;1"/></circle></g><g opacity="0"><animateMotion dur="3.46s" begin="2.40s" repeatCount="indefinite" path="M58 217.0 L126 188.0 L194 202.5 L262 217.0 L330 115.5 L398 188.0 L466 231.5 L534 173.5 L602 202.5"/><animate attributeName="opacity" dur="3.46s" begin="2.40s" repeatCount="indefinite" values="0;1;1;0" keyTimes="0;.06;.92;1"/><circle r="8" opacity=".2" fill="#e9e4da"><animate attributeName="fill" dur="3.46s" begin="2.40s" repeatCount="indefinite" values="#8fe3ff;#e9e4da;#ff2d3d" keyTimes="0;.5;1"/></circle><circle r="2.7" fill="#e9e4da"><animate attributeName="fill" dur="3.46s" begin="2.40s" repeatCount="indefinite" values="#8fe3ff;#e9e4da;#ff2d3d" keyTimes="0;.5;1"/></circle></g><g opacity="0"><animateMotion dur="4.27s" begin="3.65s" repeatCount="indefinite" path="M58 217.0 L126 246.0 L194 260.5 L262 246.0 L330 173.5 L398 159.0 L466 202.5 L534 144.5 L602 202.5"/><animate attributeName="opacity" dur="4.27s" begin="3.65s" repeatCount="indefinite" values="0;1;1;0" keyTimes="0;.06;.92;1"/><circle r="8" opacity=".2" fill="#e9e4da"><animate attributeName="fill" dur="4.27s" begin="3.65s" repeatCount="indefinite" values="#8fe3ff;#e9e4da;#ff2d3d" keyTimes="0;.5;1"/></circle><circle r="2.7" fill="#e9e4da"><animate attributeName="fill" dur="4.27s" begin="3.65s" repeatCount="indefinite" values="#8fe3ff;#e9e4da;#ff2d3d" keyTimes="0;.5;1"/></circle></g><g opacity="0"><animateMotion dur="3.67s" begin="3.66s" repeatCount="indefinite" path="M58 159.0 L126 188.0 L194 231.5 L262 159.0 L330 260.5 L398 159.0 L466 202.5 L534 202.5 L602 173.5"/><animate attributeName="opacity" dur="3.67s" begin="3.66s" repeatCount="indefinite" values="0;1;1;0" keyTimes="0;.06;.92;1"/><circle r="8" opacity=".2" fill="#e9e4da"><animate attributeName="fill" dur="3.67s" begin="3.66s" repeatCount="indefinite" values="#8fe3ff;#e9e4da;#ff2d3d" keyTimes="0;.5;1"/></circle><circle r="2.7" fill="#e9e4da"><animate attributeName="fill" dur="3.67s" begin="3.66s" repeatCount="indefinite" values="#8fe3ff;#e9e4da;#ff2d3d" keyTimes="0;.5;1"/></circle></g><g opacity="0"><animateMotion dur="3.80s" begin="2.36s" repeatCount="indefinite" path="M58 188.0 L126 159.0 L194 231.5 L262 217.0 L330 202.5 L398 188.0 L466 231.5 L534 144.5 L602 202.5"/><animate attributeName="opacity" dur="3.80s" begin="2.36s" repeatCount="indefinite" values="0;1;1;0" keyTimes="0;.06;.92;1"/><circle r="8" opacity=".2" fill="#e9e4da"><animate attributeName="fill" dur="3.80s" begin="2.36s" repeatCount="indefinite" values="#8fe3ff;#e9e4da;#ff2d3d" keyTimes="0;.5;1"/></circle><circle r="2.7" fill="#e9e4da"><animate attributeName="fill" dur="3.80s" begin="2.36s" repeatCount="indefinite" values="#8fe3ff;#e9e4da;#ff2d3d" keyTimes="0;.5;1"/></circle></g><g opacity="0"><animateMotion dur="4.51s" begin="5.28s" repeatCount="indefinite" path="M58 217.0 L126 246.0 L194 260.5 L262 159.0 L330 289.5 L398 188.0 L466 202.5 L534 173.5 L602 202.5"/><animate attributeName="opacity" dur="4.51s" begin="5.28s" repeatCount="indefinite" values="0;1;1;0" keyTimes="0;.06;.92;1"/><circle r="8" opacity=".2" fill="#e9e4da"><animate attributeName="fill" dur="4.51s" begin="5.28s" repeatCount="indefinite" values="#8fe3ff;#e9e4da;#ff2d3d" keyTimes="0;.5;1"/></circle><circle r="2.7" fill="#e9e4da"><animate attributeName="fill" dur="4.51s" begin="5.28s" repeatCount="indefinite" values="#8fe3ff;#e9e4da;#ff2d3d" keyTimes="0;.5;1"/></circle></g><g opacity="0"><animateMotion dur="4.55s" begin="4.13s" repeatCount="indefinite" path="M58 217.0 L126 159.0 L194 260.5 L262 101.0 L330 202.5 L398 217.0 L466 260.5 L534 202.5 L602 173.5"/><animate attributeName="opacity" dur="4.55s" begin="4.13s" repeatCount="indefinite" values="0;1;1;0" keyTimes="0;.06;.92;1"/><circle r="8" opacity=".2" fill="#e9e4da"><animate attributeName="fill" dur="4.55s" begin="4.13s" repeatCount="indefinite" values="#8fe3ff;#e9e4da;#ff2d3d" keyTimes="0;.5;1"/></circle><circle r="2.7" fill="#e9e4da"><animate attributeName="fill" dur="4.55s" begin="4.13s" repeatCount="indefinite" values="#8fe3ff;#e9e4da;#ff2d3d" keyTimes="0;.5;1"/></circle></g><g opacity="0"><animateMotion dur="4.78s" begin="3.36s" repeatCount="indefinite" path="M58 217.0 L126 188.0 L194 144.5 L262 275.0 L330 173.5 L398 130.0 L466 115.5 L534 144.5 L602 173.5"/><animate attributeName="opacity" dur="4.78s" begin="3.36s" repeatCount="indefinite" values="0;1;1;0" keyTimes="0;.06;.92;1"/><circle r="8" opacity=".2" fill="#e9e4da"><animate attributeName="fill" dur="4.78s" begin="3.36s" repeatCount="indefinite" values="#8fe3ff;#e9e4da;#ff2d3d" keyTimes="0;.5;1"/></circle><circle r="2.7" fill="#e9e4da"><animate attributeName="fill" dur="4.78s" begin="3.36s" repeatCount="indefinite" values="#8fe3ff;#e9e4da;#ff2d3d" keyTimes="0;.5;1"/></circle></g><g opacity="0"><animateMotion dur="3.96s" begin="0.81s" repeatCount="indefinite" path="M58 159.0 L126 217.0 L194 202.5 L262 246.0 L330 173.5 L398 246.0 L466 260.5 L534 231.5 L602 202.5"/><animate attributeName="opacity" dur="3.96s" begin="0.81s" repeatCount="indefinite" values="0;1;1;0" keyTimes="0;.06;.92;1"/><circle r="8" opacity=".2" fill="#e9e4da"><animate attributeName="fill" dur="3.96s" begin="0.81s" repeatCount="indefinite" values="#8fe3ff;#e9e4da;#ff2d3d" keyTimes="0;.5;1"/></circle><circle r="2.7" fill="#e9e4da"><animate attributeName="fill" dur="3.96s" begin="0.81s" repeatCount="indefinite" values="#8fe3ff;#e9e4da;#ff2d3d" keyTimes="0;.5;1"/></circle></g><g opacity="0"><animateMotion dur="4.18s" begin="5.05s" repeatCount="indefinite" path="M58 217.0 L126 130.0 L194 115.5 L262 275.0 L330 260.5 L398 130.0 L466 144.5 L534 231.5 L602 173.5"/><animate attributeName="opacity" dur="4.18s" begin="5.05s" repeatCount="indefinite" values="0;1;1;0" keyTimes="0;.06;.92;1"/><circle r="8" opacity=".2" fill="#e9e4da"><animate attributeName="fill" dur="4.18s" begin="5.05s" repeatCount="indefinite" values="#8fe3ff;#e9e4da;#ff2d3d" keyTimes="0;.5;1"/></circle><circle r="2.7" fill="#e9e4da"><animate attributeName="fill" dur="4.18s" begin="5.05s" repeatCount="indefinite" values="#8fe3ff;#e9e4da;#ff2d3d" keyTimes="0;.5;1"/></circle></g><g opacity="0"><animateMotion dur="4.26s" begin="3.96s" repeatCount="indefinite" path="M58 159.0 L126 217.0 L194 144.5 L262 275.0 L330 289.5 L398 246.0 L466 231.5 L534 202.5 L602 202.5"/><animate attributeName="opacity" dur="4.26s" begin="3.96s" repeatCount="indefinite" values="0;1;1;0" keyTimes="0;.06;.92;1"/><circle r="8" opacity=".2" fill="#e9e4da"><animate attributeName="fill" dur="4.26s" begin="3.96s" repeatCount="indefinite" values="#8fe3ff;#e9e4da;#ff2d3d" keyTimes="0;.5;1"/></circle><circle r="2.7" fill="#e9e4da"><animate attributeName="fill" dur="4.26s" begin="3.96s" repeatCount="indefinite" values="#8fe3ff;#e9e4da;#ff2d3d" keyTimes="0;.5;1"/></circle></g><g opacity="0"><animateMotion dur="4.45s" begin="4.62s" repeatCount="indefinite" path="M58 217.0 L126 217.0 L194 231.5 L262 188.0 L330 144.5 L398 246.0 L466 202.5 L534 231.5 L602 202.5"/><animate attributeName="opacity" dur="4.45s" begin="4.62s" repeatCount="indefinite" values="0;1;1;0" keyTimes="0;.06;.92;1"/><circle r="8" opacity=".2" fill="#e9e4da"><animate attributeName="fill" dur="4.45s" begin="4.62s" repeatCount="indefinite" values="#8fe3ff;#e9e4da;#ff2d3d" keyTimes="0;.5;1"/></circle><circle r="2.7" fill="#e9e4da"><animate attributeName="fill" dur="4.45s" begin="4.62s" repeatCount="indefinite" values="#8fe3ff;#e9e4da;#ff2d3d" keyTimes="0;.5;1"/></circle></g><g opacity="0"><animateMotion dur="3.73s" begin="1.85s" repeatCount="indefinite" path="M58 188.0 L126 246.0 L194 202.5 L262 246.0 L330 173.5 L398 159.0 L466 202.5 L534 144.5 L602 202.5"/><animate attributeName="opacity" dur="3.73s" begin="1.85s" repeatCount="indefinite" values="0;1;1;0" keyTimes="0;.06;.92;1"/><circle r="8" opacity=".2" fill="#e9e4da"><animate attributeName="fill" dur="3.73s" begin="1.85s" repeatCount="indefinite" values="#8fe3ff;#e9e4da;#ff2d3d" keyTimes="0;.5;1"/></circle><circle r="2.7" fill="#e9e4da"><animate attributeName="fill" dur="3.73s" begin="1.85s" repeatCount="indefinite" values="#8fe3ff;#e9e4da;#ff2d3d" keyTimes="0;.5;1"/></circle></g><g opacity="0"><animateMotion dur="3.49s" begin="2.24s" repeatCount="indefinite" path="M58 217.0 L126 130.0 L194 144.5 L262 130.0 L330 173.5 L398 188.0 L466 260.5 L534 173.5 L602 173.5"/><animate attributeName="opacity" dur="3.49s" begin="2.24s" repeatCount="indefinite" values="0;1;1;0" keyTimes="0;.06;.92;1"/><circle r="8" opacity=".2" fill="#e9e4da"><animate attributeName="fill" dur="3.49s" begin="2.24s" repeatCount="indefinite" values="#8fe3ff;#e9e4da;#ff2d3d" keyTimes="0;.5;1"/></circle><circle r="2.7" fill="#e9e4da"><animate attributeName="fill" dur="3.49s" begin="2.24s" repeatCount="indefinite" values="#8fe3ff;#e9e4da;#ff2d3d" keyTimes="0;.5;1"/></circle></g><g opacity="0"><animateMotion dur="4.60s" begin="4.21s" repeatCount="indefinite" path="M58 217.0 L126 217.0 L194 202.5 L262 101.0 L330 173.5 L398 275.0 L466 202.5 L534 231.5 L602 173.5"/><animate attributeName="opacity" dur="4.60s" begin="4.21s" repeatCount="indefinite" values="0;1;1;0" keyTimes="0;.06;.92;1"/><circle r="8" opacity=".2" fill="#e9e4da"><animate attributeName="fill" dur="4.60s" begin="4.21s" repeatCount="indefinite" values="#8fe3ff;#e9e4da;#ff2d3d" keyTimes="0;.5;1"/></circle><circle r="2.7" fill="#e9e4da"><animate attributeName="fill" dur="4.60s" begin="4.21s" repeatCount="indefinite" values="#8fe3ff;#e9e4da;#ff2d3d" keyTimes="0;.5;1"/></circle></g><g opacity="0"><animateMotion dur="4.08s" begin="1.50s" repeatCount="indefinite" path="M58 188.0 L126 217.0 L194 115.5 L262 159.0 L330 202.5 L398 275.0 L466 202.5 L534 231.5 L602 173.5"/><animate attributeName="opacity" dur="4.08s" begin="1.50s" repeatCount="indefinite" values="0;1;1;0" keyTimes="0;.06;.92;1"/><circle r="8" opacity=".2" fill="#e9e4da"><animate attributeName="fill" dur="4.08s" begin="1.50s" repeatCount="indefinite" values="#8fe3ff;#e9e4da;#ff2d3d" keyTimes="0;.5;1"/></circle><circle r="2.7" fill="#e9e4da"><animate attributeName="fill" dur="4.08s" begin="1.50s" repeatCount="indefinite" values="#8fe3ff;#e9e4da;#ff2d3d" keyTimes="0;.5;1"/></circle></g><g opacity="0"><animateMotion dur="4.77s" begin="2.94s" repeatCount="indefinite" path="M58 188.0 L126 130.0 L194 202.5 L262 159.0 L330 260.5 L398 246.0 L466 144.5 L534 231.5 L602 173.5"/><animate attributeName="opacity" dur="4.77s" begin="2.94s" repeatCount="indefinite" values="0;1;1;0" keyTimes="0;.06;.92;1"/><circle r="8" opacity=".2" fill="#e9e4da"><animate attributeName="fill" dur="4.77s" begin="2.94s" repeatCount="indefinite" values="#8fe3ff;#e9e4da;#ff2d3d" keyTimes="0;.5;1"/></circle><circle r="2.7" fill="#e9e4da"><animate attributeName="fill" dur="4.77s" begin="2.94s" repeatCount="indefinite" values="#8fe3ff;#e9e4da;#ff2d3d" keyTimes="0;.5;1"/></circle></g><g opacity="0"><animateMotion dur="4.61s" begin="1.00s" repeatCount="indefinite" path="M58 188.0 L126 246.0 L194 231.5 L262 246.0 L330 86.5 L398 101.0 L466 260.5 L534 231.5 L602 173.5"/><animate attributeName="opacity" dur="4.61s" begin="1.00s" repeatCount="indefinite" values="0;1;1;0" keyTimes="0;.06;.92;1"/><circle r="8" opacity=".2" fill="#e9e4da"><animate attributeName="fill" dur="4.61s" begin="1.00s" repeatCount="indefinite" values="#8fe3ff;#e9e4da;#ff2d3d" keyTimes="0;.5;1"/></circle><circle r="2.7" fill="#e9e4da"><animate attributeName="fill" dur="4.61s" begin="1.00s" repeatCount="indefinite" values="#8fe3ff;#e9e4da;#ff2d3d" keyTimes="0;.5;1"/></circle></g><g opacity="0"><animateMotion dur="4.45s" begin="4.58s" repeatCount="indefinite" path="M58 188.0 L126 217.0 L194 173.5 L262 130.0 L330 289.5 L398 159.0 L466 173.5 L534 231.5 L602 202.5"/><animate attributeName="opacity" dur="4.45s" begin="4.58s" repeatCount="indefinite" values="0;1;1;0" keyTimes="0;.06;.92;1"/><circle r="8" opacity=".2" fill="#e9e4da"><animate attributeName="fill" dur="4.45s" begin="4.58s" repeatCount="indefinite" values="#8fe3ff;#e9e4da;#ff2d3d" keyTimes="0;.5;1"/></circle><circle r="2.7" fill="#e9e4da"><animate attributeName="fill" dur="4.45s" begin="4.58s" repeatCount="indefinite" values="#8fe3ff;#e9e4da;#ff2d3d" keyTimes="0;.5;1"/></circle></g><g opacity="0"><animateMotion dur="4.46s" begin="5.22s" repeatCount="indefinite" path="M58 188.0 L126 130.0 L194 202.5 L262 101.0 L330 86.5 L398 159.0 L466 144.5 L534 144.5 L602 173.5"/><animate attributeName="opacity" dur="4.46s" begin="5.22s" repeatCount="indefinite" values="0;1;1;0" keyTimes="0;.06;.92;1"/><circle r="8" opacity=".2" fill="#e9e4da"><animate attributeName="fill" dur="4.46s" begin="5.22s" repeatCount="indefinite" values="#8fe3ff;#e9e4da;#ff2d3d" keyTimes="0;.5;1"/></circle><circle r="2.7" fill="#e9e4da"><animate attributeName="fill" dur="4.46s" begin="5.22s" repeatCount="indefinite" values="#8fe3ff;#e9e4da;#ff2d3d" keyTimes="0;.5;1"/></circle></g><g opacity="0"><animateMotion dur="4.05s" begin="1.41s" repeatCount="indefinite" path="M58 159.0 L126 130.0 L194 231.5 L262 130.0 L330 173.5 L398 130.0 L466 202.5 L534 144.5 L602 173.5"/><animate attributeName="opacity" dur="4.05s" begin="1.41s" repeatCount="indefinite" values="0;1;1;0" keyTimes="0;.06;.92;1"/><circle r="8" opacity=".2" fill="#e9e4da"><animate attributeName="fill" dur="4.05s" begin="1.41s" repeatCount="indefinite" values="#8fe3ff;#e9e4da;#ff2d3d" keyTimes="0;.5;1"/></circle><circle r="2.7" fill="#e9e4da"><animate attributeName="fill" dur="4.05s" begin="1.41s" repeatCount="indefinite" values="#8fe3ff;#e9e4da;#ff2d3d" keyTimes="0;.5;1"/></circle></g><g opacity="0"><animateMotion dur="4.21s" begin="5.11s" repeatCount="indefinite" path="M58 188.0 L126 159.0 L194 231.5 L262 217.0 L330 115.5 L398 275.0 L466 144.5 L534 202.5 L602 173.5"/><animate attributeName="opacity" dur="4.21s" begin="5.11s" repeatCount="indefinite" values="0;1;1;0" keyTimes="0;.06;.92;1"/><circle r="8" opacity=".2" fill="#e9e4da"><animate attributeName="fill" dur="4.21s" begin="5.11s" repeatCount="indefinite" values="#8fe3ff;#e9e4da;#ff2d3d" keyTimes="0;.5;1"/></circle><circle r="2.7" fill="#e9e4da"><animate attributeName="fill" dur="4.21s" begin="5.11s" repeatCount="indefinite" values="#8fe3ff;#e9e4da;#ff2d3d" keyTimes="0;.5;1"/></circle></g><g opacity="0"><animateMotion dur="4.38s" begin="1.66s" repeatCount="indefinite" path="M58 217.0 L126 217.0 L194 202.5 L262 246.0 L330 173.5 L398 101.0 L466 231.5 L534 173.5 L602 173.5"/><animate attributeName="opacity" dur="4.38s" begin="1.66s" repeatCount="indefinite" values="0;1;1;0" keyTimes="0;.06;.92;1"/><circle r="8" opacity=".2" fill="#e9e4da"><animate attributeName="fill" dur="4.38s" begin="1.66s" repeatCount="indefinite" values="#8fe3ff;#e9e4da;#ff2d3d" keyTimes="0;.5;1"/></circle><circle r="2.7" fill="#e9e4da"><animate attributeName="fill" dur="4.38s" begin="1.66s" repeatCount="indefinite" values="#8fe3ff;#e9e4da;#ff2d3d" keyTimes="0;.5;1"/></circle></g><use xlink:href="#r_fehu" transform="translate(58 318) rotate(0) scale(1) translate(-6 -9)" stroke="#8fe3ff" stroke-width="1.5" fill="none" stroke-linecap="round" stroke-linejoin="round" opacity=".85"/><use xlink:href="#r_uruz" transform="translate(126 318) rotate(0) scale(1) translate(-6 -9)" stroke="#a6e3f6" stroke-width="1.5" fill="none" stroke-linecap="round" stroke-linejoin="round" opacity=".85"/><use xlink:href="#r_thurs" transform="translate(194 318) rotate(0) scale(1) translate(-6 -9)" stroke="#bce4ec" stroke-width="1.5" fill="none" stroke-linecap="round" stroke-linejoin="round" opacity=".85"/><use xlink:href="#r_ansuz" transform="translate(262 318) rotate(0) scale(1) translate(-6 -9)" stroke="#d2e4e3" stroke-width="1.5" fill="none" stroke-linecap="round" stroke-linejoin="round" opacity=".85"/><use xlink:href="#r_raido" transform="translate(330 318) rotate(0) scale(1) translate(-6 -9)" stroke="#e9e4da" stroke-width="1.5" fill="none" stroke-linecap="round" stroke-linejoin="round" opacity=".85"/><use xlink:href="#r_kenaz" transform="translate(398 318) rotate(0) scale(1) translate(-6 -9)" stroke="#eeb6b3" stroke-width="1.5" fill="none" stroke-linecap="round" stroke-linejoin="round" opacity=".85"/><use xlink:href="#r_gebo" transform="translate(466 318) rotate(0) scale(1) translate(-6 -9)" stroke="#f4888c" stroke-width="1.5" fill="none" stroke-linecap="round" stroke-linejoin="round" opacity=".85"/><use xlink:href="#r_wunjo" transform="translate(534 318) rotate(0) scale(1) translate(-6 -9)" stroke="#fa5b64" stroke-width="1.5" fill="none" stroke-linecap="round" stroke-linejoin="round" opacity=".85"/><use xlink:href="#r_hagal" transform="translate(602 318) rotate(0) scale(1) translate(-6 -9)" stroke="#ff2d3d" stroke-width="1.5" fill="none" stroke-linecap="round" stroke-linejoin="round" opacity=".85"/>
<text class="serif" x="58" y="64" font-size="14" font-style="italic" fill="#b4aea2" text-anchor="middle">input</text>
<text class="serif" x="602" y="64" font-size="14" font-style="italic" fill="#b4aea2" text-anchor="middle">output</text>
<text class="serif" x="44" y="366" font-size="15" font-style="italic" fill="#b4aea2">Nine layers, nine realms. Cold in, hot out.</text>
<path d="M628 40V352" stroke="#2b1114"/>
<g class="mono" font-size="12" fill="#b4aea2"><text x="656" y="56">loss</text>
<text x="864" y="56" text-anchor="end"><tspan fill="#ff2d3d">train</tspan>  <tspan fill="#8fe3ff">val</tspan></text>
<text x="864" y="248" text-anchor="end">epochs</text></g>
<g stroke="#2e2022" stroke-width="1" fill="none"><path d="M656 78V228H864" stroke="#5c4a4c"/>
<path d="M656 115.5H864M656 153.0H864M656 190.5H864" stroke-dasharray="2 5"/></g>
<g><animate attributeName="opacity" dur="10.0s" repeatCount="indefinite" values="1;1;0;0" keyTimes="0;.92;.98;1"/>
<path d="M656.0 84.4 L658.9 84.4 L661.9 91.6 L664.8 98.1 L667.7 105.6 L670.6 112.8 L673.6 118.2 L676.5 125.2 L679.4 132.9 L682.4 139.5 L685.3 145.5 L688.2 146.6 L691.2 148.0 L694.1 147.4 L697.0 151.5 L699.9 155.7 L702.9 158.3 L705.8 162.7 L708.7 170.8 L711.7 169.1 L714.6 172.9 L717.5 174.3 L720.5 177.2 L723.4 172.2 L726.3 174.4 L729.2 178.1 L732.2 184.3 L735.1 183.9 L738.0 188.2 L741.0 186.8 L743.9 192.3 L746.8 192.8 L749.7 191.6 L752.7 195.0 L755.6 195.4 L758.5 195.9 L761.5 195.2 L764.4 197.9 L767.3 197.5 L770.3 195.2 L773.2 200.7 L776.1 202.8 L779.0 202.0 L782.0 203.8 L784.9 206.1 L787.8 203.1 L790.8 202.4 L793.7 202.1 L796.6 202.2 L799.5 203.1 L802.5 206.0 L805.4 210.0 L808.3 208.3 L811.3 209.6 L814.2 209.0 L817.1 208.4 L820.1 210.3 L823.0 210.3 L825.9 207.8 L828.8 207.8 L831.8 210.7 L834.7 210.8 L837.6 210.7 L840.6 210.1 L843.5 209.7 L846.4 210.4 L849.4 211.0 L852.3 210.4 L855.2 212.2 L858.1 211.1 L861.1 211.2 L864.0 212.0" fill="none" stroke="#8fe3ff" stroke-width="2" stroke-linejoin="round" stroke-linecap="round" stroke-dasharray="304" stroke-dashoffset="304" opacity=".85"><animate attributeName="stroke-dashoffset" dur="10.0s" repeatCount="indefinite" values="304;304;0;0;304" keyTimes="0;.04;.64;.97;1"/></path>
<path d="M656.0 90.5 L658.9 100.8 L661.9 104.4 L664.8 118.0 L667.7 122.2 L670.6 133.2 L673.6 132.2 L676.5 136.6 L679.4 138.1 L682.4 146.1 L685.3 150.0 L688.2 155.8 L691.2 161.9 L694.1 164.5 L697.0 171.1 L699.9 173.8 L702.9 174.0 L705.8 176.9 L708.7 180.8 L711.7 177.8 L714.6 182.3 L717.5 187.2 L720.5 189.1 L723.4 192.5 L726.3 194.9 L729.2 196.8 L732.2 193.4 L735.1 196.5 L738.0 198.5 L741.0 199.2 L743.9 197.3 L746.8 201.4 L749.7 204.9 L752.7 201.2 L755.6 207.2 L758.5 208.8 L761.5 208.1 L764.4 205.1 L767.3 209.6 L770.3 215.0 L773.2 212.8 L776.1 213.9 L779.0 214.5 L782.0 213.7 L784.9 213.9 L787.8 214.0 L790.8 215.5 L793.7 213.8 L796.6 212.8 L799.5 214.5 L802.5 216.4 L805.4 215.8 L808.3 216.0 L811.3 218.3 L814.2 218.9 L817.1 217.4 L820.1 218.1 L823.0 218.9 L825.9 218.7 L828.8 219.0 L831.8 219.2 L834.7 221.5 L837.6 218.9 L840.6 219.1 L843.5 220.4 L846.4 219.4 L849.4 219.5 L852.3 219.9 L855.2 219.3 L858.1 218.0 L861.1 218.8 L864.0 218.5" fill="none" stroke="#ff2d3d" stroke-width="2.4" stroke-linejoin="round" stroke-linecap="round" stroke-dasharray="308" stroke-dashoffset="308"><animate attributeName="stroke-dashoffset" dur="10.0s" repeatCount="indefinite" values="308;308;0;0;308" keyTimes="0;.04;.64;.97;1"/></path>
<g opacity="0"><animateMotion dur="10.0s" repeatCount="indefinite" path="M656.0 90.5 L658.9 100.8 L661.9 104.4 L664.8 118.0 L667.7 122.2 L670.6 133.2 L673.6 132.2 L676.5 136.6 L679.4 138.1 L682.4 146.1 L685.3 150.0 L688.2 155.8 L691.2 161.9 L694.1 164.5 L697.0 171.1 L699.9 173.8 L702.9 174.0 L705.8 176.9 L708.7 180.8 L711.7 177.8 L714.6 182.3 L717.5 187.2 L720.5 189.1 L723.4 192.5 L726.3 194.9 L729.2 196.8 L732.2 193.4 L735.1 196.5 L738.0 198.5 L741.0 199.2 L743.9 197.3 L746.8 201.4 L749.7 204.9 L752.7 201.2 L755.6 207.2 L758.5 208.8 L761.5 208.1 L764.4 205.1 L767.3 209.6 L770.3 215.0 L773.2 212.8 L776.1 213.9 L779.0 214.5 L782.0 213.7 L784.9 213.9 L787.8 214.0 L790.8 215.5 L793.7 213.8 L796.6 212.8 L799.5 214.5 L802.5 216.4 L805.4 215.8 L808.3 216.0 L811.3 218.3 L814.2 218.9 L817.1 217.4 L820.1 218.1 L823.0 218.9 L825.9 218.7 L828.8 219.0 L831.8 219.2 L834.7 221.5 L837.6 218.9 L840.6 219.1 L843.5 220.4 L846.4 219.4 L849.4 219.5 L852.3 219.9 L855.2 219.3 L858.1 218.0 L861.1 218.8 L864.0 218.5" keyPoints="0;0;1;1" keyTimes="0;.04;.64;1" calcMode="linear"/>
<animate attributeName="opacity" dur="10.0s" repeatCount="indefinite" values="0;1;1;0" keyTimes="0;.045;.97;1"/>
<circle r="9" fill="#ff2d3d" opacity=".25"/><circle r="3.4" fill="#e9e4da"/></g></g>
<g><animate attributeName="opacity" dur="10.0s" repeatCount="indefinite" values="1;1;0;0" keyTimes="0;.92;.98;1"/><text class="mono" x="656" y="296" font-size="38" font-weight="700" fill="#e9e4da" opacity="0">2.412<animate attributeName="opacity" dur="10.0s" repeatCount="indefinite" calcMode="discrete" values="1;0;0" keyTimes="0;0.1000;1"/></text><text class="mono" x="656" y="296" font-size="38" font-weight="700" fill="#e9e4da" opacity="0">1.464<animate attributeName="opacity" dur="10.0s" repeatCount="indefinite" calcMode="discrete" values="0;1;0;0" keyTimes="0;0.1000;0.1600;1"/></text><text class="mono" x="656" y="296" font-size="38" font-weight="700" fill="#e9e4da" opacity="0">0.895<animate attributeName="opacity" dur="10.0s" repeatCount="indefinite" calcMode="discrete" values="0;1;0;0" keyTimes="0;0.1600;0.2200;1"/></text><text class="mono" x="656" y="296" font-size="38" font-weight="700" fill="#e9e4da" opacity="0">0.553<animate attributeName="opacity" dur="10.0s" repeatCount="indefinite" calcMode="discrete" values="0;1;0;0" keyTimes="0;0.2200;0.2800;1"/></text><text class="mono" x="656" y="296" font-size="38" font-weight="700" fill="#e9e4da" opacity="0">0.349<animate attributeName="opacity" dur="10.0s" repeatCount="indefinite" calcMode="discrete" values="0;1;0;0" keyTimes="0;0.2800;0.3400;1"/></text><text class="mono" x="656" y="296" font-size="38" font-weight="700" fill="#e9e4da" opacity="0">0.226<animate attributeName="opacity" dur="10.0s" repeatCount="indefinite" calcMode="discrete" values="0;1;0;0" keyTimes="0;0.3400;0.4000;1"/></text><text class="mono" x="656" y="296" font-size="38" font-weight="700" fill="#e9e4da" opacity="0">0.152<animate attributeName="opacity" dur="10.0s" repeatCount="indefinite" calcMode="discrete" values="0;1;0;0" keyTimes="0;0.4000;0.4600;1"/></text><text class="mono" x="656" y="296" font-size="38" font-weight="700" fill="#e9e4da" opacity="0">0.108<animate attributeName="opacity" dur="10.0s" repeatCount="indefinite" calcMode="discrete" values="0;1;0;0" keyTimes="0;0.4600;0.5200;1"/></text><text class="mono" x="656" y="296" font-size="38" font-weight="700" fill="#e9e4da" opacity="0">0.082<animate attributeName="opacity" dur="10.0s" repeatCount="indefinite" calcMode="discrete" values="0;1;0;0" keyTimes="0;0.5200;0.5800;1"/></text><text class="mono" x="656" y="296" font-size="38" font-weight="700" fill="#e9e4da" opacity="0">0.042<animate attributeName="opacity" dur="10.0s" repeatCount="indefinite" calcMode="discrete" values="0;1;0;0" keyTimes="0;0.5800;0.9800;1"/></text></g>
<text class="mono ell" x="656" y="332" font-size="13" fill="#b4aea2">training...<animate attributeName="display" dur="10.0s" repeatCount="indefinite" calcMode="discrete" values="inline;none;none" keyTimes="0;.64;1"/></text>
<g opacity="0"><animate attributeName="opacity" dur="10.0s" repeatCount="indefinite" values="0;0;1;1;0;0" keyTimes="0;.64;.68;.92;.98;1"/>
<path d="M656 324l5 5l10-12" stroke="#8fe3ff" stroke-width="2.4" fill="none" stroke-linecap="round" stroke-linejoin="round"/>
<text class="serif" x="678" y="330" font-size="16" font-style="italic" fill="#e9e4da">Converged. Rage channeled.</text></g>
</g>
<rect x=".5" y=".5" width="899" height="391" rx="12" fill="none" stroke="#2b1114"/>
</svg>
